<?xml version="1.0" encoding="UTF-8"?>
<svg viewBox="0 0 512 512" xmlns="http://www.w3.org/2000/svg" xmlns:xlink="http://www.w3.org/1999/xlink">
 <defs>
  <filter id="k">
   <feGaussianBlur stdDeviation=".697"/>
  </filter>
  <filter id="l">
   <feGaussianBlur stdDeviation="1.7907"/>
  </filter>
  <linearGradient id="i" x1="453.49" x2="500.18" gradientUnits="userSpaceOnUse">
   <stop stop-color="#445559" offset="0"/>
   <stop stop-color="#e7ebed" offset="0"/>
   <stop stop-color="#4d5f66" offset="1"/>
  </linearGradient>
  <linearGradient id="a" x1="112.73" x2="172.06" y1="222.93" y2="321.68" gradientUnits="userSpaceOnUse">
   <stop stop-color="#445559" offset="0"/>
   <stop stop-color="#e7ebed" offset=".6837"/>
   <stop stop-color="#4d5f66" offset="1"/>
  </linearGradient>
  <linearGradient id="h" x1="523.28" x2="531.49" gradientUnits="userSpaceOnUse">
   <stop stop-color="#b6bec5" offset="0"/>
   <stop stop-color="#bec5cb" offset=".2182"/>
   <stop stop-color="#d7dade" offset=".5896"/>
   <stop stop-color="#fff" offset="1"/>
  </linearGradient>
  <linearGradient id="e" x1="550.73" x2="564.93" gradientUnits="userSpaceOnUse">
   <stop stop-color="#b6bec5" offset="0"/>
   <stop stop-color="#bec5cb" offset=".2182"/>
   <stop stop-color="#d7dade" offset=".5896"/>
   <stop stop-color="#fff" offset="1"/>
  </linearGradient>
  <linearGradient id="d" x1="567.69" x2="591.14" gradientUnits="userSpaceOnUse">
   <stop stop-color="#b6bec5" offset="0"/>
   <stop stop-color="#fff" offset="1"/>
  </linearGradient>
  <linearGradient id="c" x1="532.33" x2="538.94" gradientUnits="userSpaceOnUse">
   <stop stop-color="#b6bec5" offset="0"/>
   <stop stop-color="#bec5cb" offset=".2182"/>
   <stop stop-color="#d7dade" offset=".5896"/>
   <stop stop-color="#fff" offset="1"/>
  </linearGradient>
  <linearGradient id="f" x1="593.21" x2="605.93" gradientUnits="userSpaceOnUse">
   <stop stop-color="#b6bec5" offset="0"/>
   <stop stop-color="#34464c" offset=".47"/>
   <stop stop-color="#c5ced2" offset="1"/>
  </linearGradient>
  <linearGradient id="g" x1="503.68" x2="521.56" gradientUnits="userSpaceOnUse" xlink:href="#a"/>
  <linearGradient id="b" x1="539.88" x2="548.99" gradientUnits="userSpaceOnUse" xlink:href="#a"/>
  <linearGradient id="j" x1="339" x2="445.6" gradientUnits="userSpaceOnUse" xlink:href="#a"/>
 </defs>
 <g transform="matrix(1.8014 0 0 1.8014 -586.34 -157.28)" fill-rule="evenodd">
  <path d="m330.949,319.988c2.141-.373 4.374-.738 6.69-1.098v11.442c-2.317.417-4.55.833-6.69,1.252v-11.596zm274.98-53.441v2.949l-1.3.003v-2.979l1.3.027zm-264.464,51.764c3.554-.525 7.282-1.042 11.158-1.558v11.057c-3.875.621-7.604,1.235-11.158,1.85v-11.349zm14.984-2.06c3.611-.468 7.337-.937 11.158-1.411v10.635c-3.82.584-7.547,1.159-11.158,1.728v-10.952zm14.984-1.883 10.84-1.331v10.2l-10.84,1.653v-10.522zm14.666-1.803 10.521-1.317v9.763c-3.544.56-7.056,1.105-10.521,1.638v-10.084zm14.346-1.806c3.272-.422 6.57-.856 9.883-1.304v9.338c-3.313.551-6.61,1.087-9.883,1.611v-9.645zm13.709-1.826c3.18-.439 6.371-.892 9.564-1.361v8.918c-3.193.569-6.384,1.122-9.564,1.661v-9.218zm13.39-1.93c2.979-.449 5.957-.913 8.926-1.393v8.518c-2.969.573-5.947,1.13-8.926,1.673v-8.798zm12.752-2.021c2.667-.445 5.326-.904 7.971-1.377v8.147c-2.645.557-5.303,1.099-7.971,1.627v-8.397zm11.796-2.074c2.244-.417 4.477-.845 6.695-1.285v7.818c-2.217.509-4.451,1.007-6.695,1.494v-8.027zm10.521-2.061c1.77-.366 3.531-.738 5.278-1.121v7.535c-1.747.437-3.507.864-5.278,1.285v-7.699zm9.103-1.975c1.466-.335 2.923-.676 4.368-1.024v7.283c-1.445.392-2.902.778-4.368,1.158v-7.417zm8.193-1.969c1.16-.292 2.314-.588 3.458-.89v7.06c-1.144.337-2.298.668-3.458.996v-7.166zm7.283-1.925 2.547-.72v6.867c-.843.268-1.692.533-2.547.797v-6.944zm6.373-1.849c.854-.26 1.704-.523 2.546-.79v6.675c-.842.292-1.691.58-2.546.865v-6.75zm6.373-2.033 2.547-.873v6.485c-.841.319-1.69.635-2.547.948v-6.56zm6.373-2.253c.857-.32 1.707-.645 2.547-.974v6.295l-2.547,1.05v-6.371zm6.372-2.53c.548-.231 1.098-.462 1.637-.697v6.133l-1.637.746v-6.182zm5.462-2.436c.549-.26 1.1-.519 1.637-.784v5.97c-.537.28-1.088.557-1.637.833v-6.019zm5.462-2.764 .726-.389v5.83c-.237.139-.485.274-.726.412v-5.853zm4.552-2.622c.24-.147.488-.292.726-.441v5.684c-.237.157-.485.31-.726.465v-5.708zm4.552-2.837c.237-.133.479-.266.726-.396v5.52c-.244.143-.486.288-.726.434v-5.558zm4.552-2.17c.238-.097.48-.193.726-.289v5.224l-.726.339v-5.274zm4.551-1.618c.533-.166 1.079-.328 1.637-.486v4.857c-.556.193-1.102.39-1.637.592v-4.963zm5.462-1.47c.826-.192 1.675-.378 2.547-.557v4.495c-.87.222-1.719.453-2.547.691v-4.629zm6.373-1.271c.83-.141 1.679-.277 2.547-.407v4.208c-.867.165-1.716.336-2.547.514v-4.315zm6.372-.931 2.547-.298v3.977c-.865.123-1.714.251-2.547.384v-4.063zm6.374-.678c.835-.075 1.684-.146 2.547-.214v3.788c-.863.091-1.713.187-2.547.286v-3.86zm6.372-.482 2.547-.147v3.625l-2.547.21v-3.688zm6.373-.326 2.547-.092v3.477l-2.547.15v-3.535zm6.372-.194 2.547-.047v3.338l-2.547.102v-3.393zm6.373-.086c.84-.005 1.688-.008 2.547-.008v3.201l-2.547.063v-3.256zm6.372.006c.842.006 1.688.014 2.547.025v3.063l-2.547.031v-3.119z" fill="#fff" filter="url(#k)" opacity=".9"/>
  <path d="m330.95 315.43c51.05-9.143 153.9-12.421 199.43-42.377 11.359-7.475 34.153-11.351 75.552-10.398v-39.332c-39.454 0.67-63.653-3.239-72.861-12.54-10.71-10.818-24.289-18.127-40.777-23.929-31.814-11.195-85.461-22.849-161.34-33.375v161.95z" fill="#1d1d1d"/>
  <path d="m330.95 315.43c51.05-9.143 153.9-12.421 199.43-42.377 11.359-7.475 34.153-11.351 75.552-10.398v-39.332c-39.454 0.67-63.653-3.239-72.861-12.54-10.71-10.818-24.289-18.127-40.777-23.929-31.814-11.195-85.461-22.849-161.34-33.375v161.95z" fill="#1d1d1d" filter="url(#l)"/>
  <path d="m493.839,200.609c-10.17-2.951-21.166-5.356-31.563-7.282-8.477-.994-9.073.176-8.701,10.311v67.331c0,8.886 3.233,11.271 10.546,10.341 10.254-1.303 20.294-2.562 29.669-4.203 5.212-.838 6.539-2.372 6.379-8.436v-56.511c.16-6.442-1.015-10.173-6.33-11.551z" fill="url(#i)"/>
  <path d="m517.785,208.934c-3.063-1.369-6.628-3.226-10.963-4.665-2.833-.86-3.143.91-3.143,3.984v60.037c0,5.455.29,6.381 4.613,5.371 3.9-1.105 7.887-2.115 11.454-3.42 1.907-.798 1.765-2.161 1.805-4.715v-51.021c.081-3.813-.828-4.25-3.766-5.571z" fill="url(#g)"/>
  <path d="m529.678,215.67-3.837-2.518c-2.439-1.732-2.653-.635-2.534,3.583l.16,48.527c0,3.331-.794,4.233 2.063,3.017 1.721-.732 3.391-1.446 5.005-2.239 1.318-.647.892-1.369.892-3.024v-43.041c-.001-2.805.224-2.782-1.749-4.305z" fill="url(#h)"/>
  <path d="m537.697,221.118c-1.421-.693-2.709-1.452-3.862-2.282-1.412-1.016-1.5-.794-1.452.974v42.01c0,3.255-.567,3.423 2.027,2.366 .937-.382 1.939-.753 3.011-1.111 1.788-.599 1.502-.545 1.502-2.784v-36.92c0-1.759.118-1.598-1.226-2.253z" fill="#fff"/>
  <path d="m547.793,224.521c-2.37-.549-4.543-1.178-6.517-1.897-1.498-.545-1.396-.846-1.396,1.081v36.395c0,2.058 0,2.214 1.668,1.747 1.779-.499 3.716-.916 5.8-1.326 1.95-.384 1.624-.347 1.624-2.715v-31.567c0-1.58.111-1.419-1.179-1.718z" fill="url(#b)"/>
  <path d="m562.964,226.813c-3.697-.332-7.112-.729-10.236-1.309-2.427-.45-1.921.5-2.001,3.048v28.825c.08,2.348-.053,2.569 1.896,2.23 3.225-.56 6.762-1.072 10.627-1.256 1.775-.084 1.673-.356 1.673-2.886v-26.19c0-2.559.167-2.272-1.959-2.462z" fill="url(#e)"/>
  <path d="m588.31,227.891c-6.813-.105-13.056-.212-18.722-.642-1.732-.131-1.9.264-1.9,2.201v25.235c.08,2.868-.085,3.283 2.287,3.121 5.51-.375 11.587-.51 18.263-.497 3.1.006 2.898-.425 2.898-4.329v-21.284c0-3.647.033-3.761-2.826-3.805z" fill="url(#d)"/>
  <path d="m436.166,188.859c-24.418-3.677-54.333-7.752-87.518-11.18-3.861-.329-9.643,2.559-9.643,9.749v87.734c.5,12.498 2.103,16.885 14.578,15.537 24.542-2.09 54.135-3.608 83.137-5.999 6.899-.81 8.877-3.399 8.877-10.677v-74.77c0-8.181-4.818-9.69-9.431-10.394z" fill="url(#j)"/>
  <path d="m537.697,221.118c-1.421-.693-2.709-1.452-3.862-2.282-1.412-1.016-1.5-.794-1.452.974v42.01c0,3.255-.567,3.423 2.027,2.366 .937-.382 1.939-.753 3.011-1.111 1.788-.599 1.502-.545 1.502-2.784v-36.92c0-1.759.118-1.598-1.226-2.253z" fill="url(#c)"/>
  <path d="m605.929,228.096c-3.58.026-7.046.04-10.325.035-2.719-.004-2.382-.222-2.382,3.025v23.037c0,3.114.186,3.333 2.067,3.388 3.405.1 6.951.189 10.64.342v-29.827z" fill="url(#f)"/>
  <path d="m330.949,157.745 6.734.987v13.925c-2.284-.198-4.53-.387-6.734-.566v-14.346zm274.98,66.895v2.209l-1.256-.028v-2.164l1.256-.017zm-264.42-65.342c3.778.561 7.498,1.119 11.158,1.675v13.076c-3.8-.376-7.524-.727-11.158-1.054v-13.697zm14.984,2.259c3.784.579 7.503,1.157 11.158,1.731v12.329c-3.776-.417-7.5-.812-11.158-1.184v-12.876zm14.984,2.336c3.679.584 7.292,1.167 10.839,1.748v11.68c-3.65-.445-7.267-.87-10.839-1.275v-12.153zm14.665,2.378c3.576.592 7.083,1.183 10.521,1.772v11.109c-3.529-.471-7.039-.925-10.521-1.36v-11.521zm14.346,2.433c3.363.585 6.658,1.169 9.883,1.752v10.608c-3.305-.481-6.601-.946-9.883-1.395v-10.965zm13.709,2.449c3.261.599 6.45,1.198 9.564,1.796v10.145c-3.189-.504-6.379-.993-9.564-1.467v-10.474zm13.39,2.538c3.048.597 6.024,1.194 8.927,1.792v9.708c-2.97-.508-5.948-1.003-8.927-1.485v-10.015zm12.753,2.588c2.723.574 5.381,1.148 7.97,1.723v9.287c-2.647-.489-5.305-.967-7.97-1.434v-9.576zm11.796,2.585c2.286.522 4.519,1.045 6.695,1.569v8.793c-2.25-.406-4.483-.811-6.695-1.225v-9.137zm10.52,2.507c1.799.448 3.56.897 5.278,1.347v8.165c-1.765-.328-3.525-.649-5.278-.966v-8.546zm9.104,2.369c1.488.406 2.945.813 4.368,1.221v7.514c-1.457-.298-2.913-.586-4.368-.867v-7.868zm8.193,2.344c1.176.354 2.33.708 3.457,1.063v6.909c-1.151-.267-2.304-.525-3.457-.775v-7.197zm7.283,2.305 2.547.868v6.375l-2.547-.655v-6.588zm6.373,2.174c.86.292 1.709.59 2.547.895v5.985c-.848-.259-1.696-.51-2.547-.755v-6.125zm6.372,2.36c.861.348 1.711.702 2.547,1.062v5.568c-.846-.303-1.695-.598-2.547-.884v-5.746zm6.373,2.791c.863.409 1.712.824 2.547,1.244v5.081c-.845-.358-1.693-.706-2.547-1.044v-5.281zm6.373,3.261c.552.303 1.098.609 1.637.917v4.645c-.543-.268-1.09-.529-1.637-.787v-4.775zm5.461,3.197c.553.343 1.098.688 1.637,1.034v4.242c-.543-.313-1.089-.619-1.637-.92v-4.356zm5.462,3.592 .727.508v3.984c-.241-.159-.483-.316-.727-.473v-4.019zm4.552,3.302c.244.184.486.368.727.552v3.863l-.727-.543v-3.872zm4.553,3.573c.239.19.48.377.726.562v3.745c-.246-.162-.488-.326-.726-.493v-3.814zm4.552,3.085c.239.138.481.275.726.409v3.315c-.244-.113-.486-.228-.726-.344v-3.38zm4.551,2.279c.536.232 1.082.457 1.636.674v2.886c-.553-.18-1.099-.366-1.636-.559v-3.001zm5.462,2.017c.832.26 1.681.507 2.547.741v2.532c-.861-.194-1.711-.399-2.547-.617v-2.656zm6.373,1.67c.834.181 1.683.353 2.547.514v2.296c-.857-.135-1.707-.279-2.547-.432v-2.378zm6.372,1.156c.837.125 1.686.243 2.547.354v2.146c-.854-.094-1.703-.194-2.547-.302v-2.198zm6.373.79 2.548.237v2.05c-.852-.063-1.7-.13-2.548-.204v-2.083zm6.373.524c.84.055 1.688.104 2.547.15v1.99c-.848-.039-1.697-.083-2.547-.131v-2.009zm6.372.325 2.547.087v1.958c-.845-.022-1.694-.048-2.547-.077v-1.968zm6.373.18c.842.016 1.69.029 2.547.039v1.95c-.842-.011-1.691-.024-2.547-.04v-1.949zm6.373.069c.842.003 1.69.005 2.546.004v1.977l-2.546-.021v-1.96zm6.372-.01 2.547-.021v2.062l-2.547-.023v-2.018z" fill="#dad8ff"/>
  <path d="m330.949,297.903c2.157-.247 4.404-.482 6.734-.71v13.397c-2.331.342-4.578.688-6.734,1.039v-13.726zm274.98-38.814v2.187l-1.256-.027v-2.211l1.256.051zm-264.42,37.744c3.559-.323 7.287-.631 11.158-.931v12.658c-3.873.492-7.601.983-11.158,1.481v-13.208zm14.984-1.22c3.613-.269 7.34-.534 11.158-.798v11.911c-3.819.457-7.545.907-11.158,1.355v-12.468zm14.984-1.062 10.839-.739v11.172c-3.676.438-7.294.865-10.839,1.286v-11.719zm14.665-1.002c3.466-.239 6.976-.484 10.521-.74v10.441c-3.544.437-7.055.861-10.521,1.276v-10.977zm14.346-1.018c3.273-.242 6.571-.493 9.883-.755v9.736c-3.313.435-6.61.855-9.883,1.265v-10.246zm13.709-1.064c3.181-.261 6.371-.534 9.564-.821v9.04c-3.193.454-6.384.893-9.564,1.319v-9.538zm13.39-1.172c2.979-.279 5.957-.571 8.927-.878v8.371c-2.97.464-5.948.912-8.927,1.347v-8.84zm12.753-1.282c2.667-.288 5.325-.589 7.97-.905v7.745c-2.645.457-5.304.899-7.97,1.329v-8.169zm11.796-1.372c2.244-.281 4.477-.573 6.695-.877v7.181c-2.218.423-4.451.834-6.695,1.236v-7.54zm10.52-1.415c1.77-.255 3.531-.517 5.278-.789v6.687c-1.747.367-3.508.725-5.278,1.075v-6.973zm9.104-1.399c1.466-.241 2.923-.487 4.368-.74v6.239c-1.445.333-2.902.659-4.368.979v-6.478zm8.193-1.432c1.159-.215 2.313-.434 3.457-.658v5.836c-1.144.288-2.298.57-3.457.85v-6.028zm7.283-1.43 2.547-.542v5.48l-2.547.685v-5.623zm6.373-1.401 2.547-.605v5.121l-2.547.749v-5.265zm6.372-1.565c.855-.223 1.705-.449 2.547-.68v4.757c-.842.279-1.691.554-2.547.826v-4.903zm6.373-1.764c.857-.252 1.707-.509 2.547-.771v4.389c-.84.311-1.689.616-2.547.918v-4.536zm6.373-2.01 1.637-.559v4.069l-1.637.654v-4.164zm5.461-1.962c.549-.21 1.099-.42 1.637-.636v3.745c-.538.247-1.088.49-1.637.733v-3.842zm5.462-2.251 .727-.318v3.471l-.727.362v-3.515zm4.552-2.157c.241-.123.489-.241.727-.365v3.192c-.237.138-.485.272-.727.409v-3.236zm4.553-2.395c.237-.116.479-.232.726-.346v3.022l-.726.359v-3.035zm4.552-1.913c.238-.086.48-.172.726-.257v2.973c-.245.087-.487.174-.726.263v-2.979zm4.551-1.442c.533-.148 1.079-.292 1.636-.434v2.941c-.558.144-1.104.292-1.636.442v-2.949zm5.462-1.312c.826-.171 1.675-.335 2.547-.494v2.908c-.873.164-1.721.333-2.547.508v-2.922zm6.373-1.122c.83-.124 1.678-.242 2.547-.354v2.866c-.869.119-1.718.244-2.547.372v-2.884zm6.372-.802c.833-.087 1.682-.171 2.547-.249v2.813l-2.547.272v-2.836zm6.373-.559c.835-.06 1.685-.115 2.548-.167v2.75c-.863.061-1.712.126-2.548.194v-2.777zm6.373-.365c.837-.037 1.685-.071 2.547-.101v2.674l-2.547.132v-2.705zm6.372-.21c.839-.018 1.687-.034 2.547-.045v2.589c-.859.024-1.708.051-2.547.081v-2.625zm6.373-.077 2.547.001v2.494c-.859.01-1.708.023-2.547.038v-2.533zm6.373.035c.84.011 1.688.024 2.546.041v2.392l-2.546.001v-2.434zm6.372.13c.842.023 1.688.048 2.547.076v2.281l-2.547-.031v-2.326z" fill="#dad8ff"/>
 </g>
</svg>
